<svg xmlns="http://www.w3.org/2000/svg" xmlns:xlink="http://www.w3.org/1999/xlink" version="1.1" class="marks" width="800" height="420" viewBox="0 0 800 420"><g fill="none" stroke-miterlimit="10" transform="translate(8,27)"><g class="mark-group role-frame root" role="graphics-object" aria-roledescription="group mark container"><g transform="translate(0,0)"><path class="background" aria-hidden="true" d="M0,0h784v383h-784Z"/><g><g class="mark-rule role-mark layer_0_marks" role="graphics-object" aria-roledescription="rule mark container" pointer-events="none"><line aria-label="refX: 485.2" role="graphics-symbol" aria-roledescription="rule mark" transform="translate(485.2,18)" x2="0" y2="365" stroke="#D6D9D2" stroke-width="1" opacity="1"/><line aria-label="refX: 573.6" role="graphics-symbol" aria-roledescription="rule mark" transform="translate(573.6,18)" x2="0" y2="365" stroke="#D6D9D2" stroke-width="1" opacity="1"/></g><g class="mark-rect role-mark layer_1_marks" role="graphics-object" aria-roledescription="rect mark container"><path aria-label="trackStart: 220; team: Customer Portal; trackEnd: 662; Team: Customer Portal; Lab: 24*7 Services; Score: 64; Band: Watch" role="graphics-symbol" aria-roledescription="bar" d="M226,121.29166666666666L656,121.29166666666666C659.311490146964,121.29166666666666,662,123.98017651970265,662,127.29166666666666L662,127.29166666666666C662,130.60315681363065,659.311490146964,133.29166666666666,656,133.29166666666666L226,133.29166666666666C222.688509853036,133.29166666666666,220,130.60315681363065,220,127.29166666666666L220,127.29166666666666C220,123.98017651970265,222.688509853036,121.29166666666666,226,121.29166666666666Z" fill="#DCE8E0" opacity="1"/><path aria-label="trackStart: 220; team: Claims Intake; trackEnd: 662; Team: Claims Intake; Lab: 24*7 Services; Score: 88; Band: Healthy" role="graphics-symbol" aria-roledescription="bar" d="M226,241.62499999999997L656,241.62499999999997C659.311490146964,241.62499999999997,662,244.31350985303598,662,247.62499999999997L662,247.62499999999997C662,250.93649014696396,659.311490146964,253.62499999999997,656,253.62499999999997L226,253.62499999999997C222.688509853036,253.62499999999997,220,250.93649014696396,220,247.62499999999997L220,247.62499999999997C220,244.31350985303598,222.688509853036,241.62499999999997,226,241.62499999999997Z" fill="#DCE8E0" opacity="1"/><path aria-label="trackStart: 220; team: Policy Servicing; trackEnd: 662; Team: Policy Servicing; Lab: 24*7 Services; Score: 78; Band: Watch" role="graphics-symbol" aria-roledescription="bar" d="M226,181.45833333333331L656,181.45833333333331C659.311490146964,181.45833333333331,662,184.14684318636932,662,187.45833333333331L662,187.45833333333331C662,190.7698234802973,659.311490146964,193.45833333333331,656,193.45833333333331L226,193.45833333333331C222.688509853036,193.45833333333331,220,190.7698234802973,220,187.45833333333331L220,187.45833333333331C220,184.14684318636932,222.688509853036,181.45833333333331,226,181.45833333333331Z" fill="#DCE8E0" opacity="1"/><path aria-label="trackStart: 220; team: Adviser Workbench; trackEnd: 662; Team: Adviser Workbench; Lab: Colleague Tooling; Score: 100; Band: Healthy" role="graphics-symbol" aria-roledescription="bar" d="M226,361.9583333333333L656,361.9583333333333C659.311490146964,361.9583333333333,662,364.6468431863693,662,367.9583333333333L662,367.9583333333333C662,371.2698234802973,659.311490146964,373.9583333333333,656,373.9583333333333L226,373.9583333333333C222.688509853036,373.9583333333333,220,371.2698234802973,220,367.9583333333333L220,367.9583333333333C220,364.6468431863693,222.688509853036,361.9583333333333,226,361.9583333333333Z" fill="#DCE8E0" opacity="1"/><path aria-label="trackStart: 220; team: Underwriting Desk; trackEnd: 662; Team: Underwriting Desk; Lab: Colleague Tooling; Score: 81; Band: Healthy" role="graphics-symbol" aria-roledescription="bar" d="M226,211.54166666666666L656,211.54166666666666C659.311490146964,211.54166666666666,662,214.23017651970267,662,217.54166666666666L662,217.54166666666666C662,220.85315681363065,659.311490146964,223.54166666666666,656,223.54166666666666L226,223.54166666666666C222.688509853036,223.54166666666666,220,220.85315681363065,220,217.54166666666666L220,217.54166666666666C220,214.23017651970267,222.688509853036,211.54166666666666,226,211.54166666666666Z" fill="#DCE8E0" opacity="1"/><path aria-label="trackStart: 220; team: Contact Centre; trackEnd: 662; Team: Contact Centre; Lab: Colleague Tooling; Score: 36; Band: Act" role="graphics-symbol" aria-roledescription="bar" d="M226,31.041666666666657L656,31.041666666666657C659.311490146964,31.041666666666657,662,33.73017651970266,662,37.04166666666666L662,37.04166666666666C662,40.353156813630655,659.311490146964,43.04166666666666,656,43.04166666666666L226,43.04166666666666C222.688509853036,43.04166666666666,220,40.353156813630655,220,37.04166666666666L220,37.04166666666666C220,33.73017651970266,222.688509853036,31.041666666666657,226,31.041666666666657Z" fill="#DCE8E0" opacity="1"/><path aria-label="trackStart: 220; team: Automation Platform; trackEnd: 662; Team: Automation Platform; Lab: Agentic Operations; Score: 97; Band: Healthy" role="graphics-symbol" aria-roledescription="bar" d="M226,301.7916666666667L656,301.7916666666667C659.311490146964,301.7916666666667,662,304.4801765197027,662,307.7916666666667L662,307.7916666666667C662,311.1031568136307,659.311490146964,313.7916666666667,656,313.7916666666667L226,313.7916666666667C222.688509853036,313.7916666666667,220,311.1031568136307,220,307.7916666666667L220,307.7916666666667C220,304.4801765197027,222.688509853036,301.7916666666667,226,301.7916666666667Z" fill="#DCE8E0" opacity="1"/><path aria-label="trackStart: 220; team: Agent Runtime; trackEnd: 662; Team: Agent Runtime; Lab: Agentic Operations; Score: 38; Band: Act" role="graphics-symbol" aria-roledescription="bar" d="M226,61.124999999999986L656,61.124999999999986C659.311490146964,61.124999999999986,662,63.81350985303599,662,67.12499999999999L662,67.12499999999999C662,70.43649014696399,659.311490146964,73.12499999999999,656,73.12499999999999L226,73.12499999999999C222.688509853036,73.12499999999999,220,70.43649014696399,220,67.12499999999999L220,67.12499999999999C220,63.81350985303599,222.688509853036,61.124999999999986,226,61.124999999999986Z" fill="#DCE8E0" opacity="1"/><path aria-label="trackStart: 220; team: Observability; trackEnd: 662; Team: Observability; Lab: Agentic Operations; Score: 98; Band: Healthy" role="graphics-symbol" aria-roledescription="bar" d="M226,331.875L656,331.875C659.311490146964,331.875,662,334.563509853036,662,337.875L662,337.875C662,341.186490146964,659.311490146964,343.875,656,343.875L226,343.875C222.688509853036,343.875,220,341.186490146964,220,337.875L220,337.875C220,334.563509853036,222.688509853036,331.875,226,331.875Z" fill="#DCE8E0" opacity="1"/><path aria-label="trackStart: 220; team: Data Platform; trackEnd: 662; Team: Data Platform; Lab: Data &amp; Insights; Score: 65; Band: Watch" role="graphics-symbol" aria-roledescription="bar" d="M226,151.37499999999997L656,151.37499999999997C659.311490146964,151.37499999999997,662,154.06350985303598,662,157.37499999999997L662,157.37499999999997C662,160.68649014696396,659.311490146964,163.37499999999997,656,163.37499999999997L226,163.37499999999997C222.688509853036,163.37499999999997,220,160.68649014696396,220,157.37499999999997L220,157.37499999999997C220,154.06350985303598,222.688509853036,151.37499999999997,226,151.37499999999997Z" fill="#DCE8E0" opacity="1"/><path aria-label="trackStart: 220; team: Actuarial Analytics; trackEnd: 662; Team: Actuarial Analytics; Lab: Data &amp; Insights; Score: 94; Band: Healthy" role="graphics-symbol" aria-roledescription="bar" d="M226,271.7083333333333L656,271.7083333333333C659.311490146964,271.7083333333333,662,274.3968431863693,662,277.7083333333333L662,277.7083333333333C662,281.0198234802973,659.311490146964,283.7083333333333,656,283.7083333333333L226,283.7083333333333C222.688509853036,283.7083333333333,220,281.0198234802973,220,277.7083333333333L220,277.7083333333333C220,274.3968431863693,222.688509853036,271.7083333333333,226,271.7083333333333Z" fill="#DCE8E0" opacity="1"/><path aria-label="trackStart: 220; team: Regulatory Reporting; trackEnd: 662; Team: Regulatory Reporting; Lab: Data &amp; Insights; Score: 48; Band: Act" role="graphics-symbol" aria-roledescription="bar" d="M226,91.20833333333331L656,91.20833333333331C659.311490146964,91.20833333333331,662,93.89684318636931,662,97.20833333333331L662,97.20833333333331C662,100.51982348029732,659.311490146964,103.20833333333331,656,103.20833333333331L226,103.20833333333331C222.688509853036,103.20833333333331,220,100.51982348029732,220,97.20833333333331L220,97.20833333333331C220,93.89684318636931,222.688509853036,91.20833333333331,226,91.20833333333331Z" fill="#DCE8E0" opacity="1"/></g><g class="mark-rect role-mark layer_2_marks" role="graphics-object" aria-roledescription="rect mark container"><path aria-label="trackStart: 220; team: Customer Portal; barEnd: 502.88; bandColour: #B9852C; Team: Customer Portal; Lab: 24*7 Services; Score: 64; Band: Watch" role="graphics-symbol" aria-roledescription="bar" d="M226,121.29166666666666L496.88,121.29166666666666C500.191490146964,121.29166666666666,502.88,123.98017651970265,502.88,127.29166666666666L502.88,127.29166666666666C502.88,130.60315681363065,500.191490146964,133.29166666666666,496.88,133.29166666666666L226,133.29166666666666C222.688509853036,133.29166666666666,220,130.60315681363065,220,127.29166666666666L220,127.29166666666666C220,123.98017651970265,222.688509853036,121.29166666666666,226,121.29166666666666Z" fill="#B9852C" opacity="1"/><path aria-label="trackStart: 220; team: Claims Intake; barEnd: 608.96; bandColour: #0B8A6B; Team: Claims Intake; Lab: 24*7 Services; Score: 88; Band: Healthy" role="graphics-symbol" aria-roledescription="bar" d="M226,241.62499999999997L602.96,241.62499999999997C606.2714901469641,241.62499999999997,608.96,244.31350985303598,608.96,247.62499999999997L608.96,247.62499999999997C608.96,250.93649014696396,606.2714901469641,253.62499999999997,602.96,253.62499999999997L226,253.62499999999997C222.688509853036,253.62499999999997,220,250.93649014696396,220,247.62499999999997L220,247.62499999999997C220,244.31350985303598,222.688509853036,241.62499999999997,226,241.62499999999997Z" fill="#0B8A6B" opacity="1"/><path aria-label="trackStart: 220; team: Policy Servicing; barEnd: 564.76; bandColour: #B9852C; Team: Policy Servicing; Lab: 24*7 Services; Score: 78; Band: Watch" role="graphics-symbol" aria-roledescription="bar" d="M226,181.45833333333331L558.76,181.45833333333331C562.071490146964,181.45833333333331,564.76,184.14684318636932,564.76,187.45833333333331L564.76,187.45833333333331C564.76,190.7698234802973,562.071490146964,193.45833333333331,558.76,193.45833333333331L226,193.45833333333331C222.688509853036,193.45833333333331,220,190.7698234802973,220,187.45833333333331L220,187.45833333333331C220,184.14684318636932,222.688509853036,181.45833333333331,226,181.45833333333331Z" fill="#B9852C" opacity="1"/><path aria-label="trackStart: 220; team: Adviser Workbench; barEnd: 662; bandColour: #0B8A6B; Team: Adviser Workbench; Lab: Colleague Tooling; Score: 100; Band: Healthy" role="graphics-symbol" aria-roledescription="bar" d="M226,361.9583333333333L656,361.9583333333333C659.311490146964,361.9583333333333,662,364.6468431863693,662,367.9583333333333L662,367.9583333333333C662,371.2698234802973,659.311490146964,373.9583333333333,656,373.9583333333333L226,373.9583333333333C222.688509853036,373.9583333333333,220,371.2698234802973,220,367.9583333333333L220,367.9583333333333C220,364.6468431863693,222.688509853036,361.9583333333333,226,361.9583333333333Z" fill="#0B8A6B" opacity="1"/><path aria-label="trackStart: 220; team: Underwriting Desk; barEnd: 578.02; bandColour: #0B8A6B; Team: Underwriting Desk; Lab: Colleague Tooling; Score: 81; Band: Healthy" role="graphics-symbol" aria-roledescription="bar" d="M226,211.54166666666666L572.02,211.54166666666666C575.331490146964,211.54166666666666,578.02,214.23017651970267,578.02,217.54166666666666L578.02,217.54166666666666C578.02,220.85315681363065,575.331490146964,223.54166666666666,572.02,223.54166666666666L226,223.54166666666666C222.688509853036,223.54166666666666,220,220.85315681363065,220,217.54166666666666L220,217.54166666666666C220,214.23017651970267,222.688509853036,211.54166666666666,226,211.54166666666666Z" fill="#0B8A6B" opacity="1"/><path aria-label="trackStart: 220; team: Contact Centre; barEnd: 379.12; bandColour: #B6462F; Team: Contact Centre; Lab: Colleague Tooling; Score: 36; Band: Act" role="graphics-symbol" aria-roledescription="bar" d="M226,31.041666666666657L373.12,31.041666666666657C376.431490146964,31.041666666666657,379.12,33.73017651970266,379.12,37.04166666666666L379.12,37.04166666666666C379.12,40.353156813630655,376.431490146964,43.04166666666666,373.12,43.04166666666666L226,43.04166666666666C222.688509853036,43.04166666666666,220,40.353156813630655,220,37.04166666666666L220,37.04166666666666C220,33.73017651970266,222.688509853036,31.041666666666657,226,31.041666666666657Z" fill="#B6462F" opacity="1"/><path aria-label="trackStart: 220; team: Automation Platform; barEnd: 648.74; bandColour: #0B8A6B; Team: Automation Platform; Lab: Agentic Operations; Score: 97; Band: Healthy" role="graphics-symbol" aria-roledescription="bar" d="M226,301.7916666666667L642.74,301.7916666666667C646.051490146964,301.7916666666667,648.74,304.4801765197027,648.74,307.7916666666667L648.74,307.7916666666667C648.74,311.1031568136307,646.051490146964,313.7916666666667,642.74,313.7916666666667L226,313.7916666666667C222.688509853036,313.7916666666667,220,311.1031568136307,220,307.7916666666667L220,307.7916666666667C220,304.4801765197027,222.688509853036,301.7916666666667,226,301.7916666666667Z" fill="#0B8A6B" opacity="1"/><path aria-label="trackStart: 220; team: Agent Runtime; barEnd: 387.96; bandColour: #B6462F; Team: Agent Runtime; Lab: Agentic Operations; Score: 38; Band: Act" role="graphics-symbol" aria-roledescription="bar" d="M226,61.124999999999986L381.96000000000004,61.124999999999986C385.271490146964,61.124999999999986,387.96000000000004,63.81350985303599,387.96000000000004,67.12499999999999L387.96000000000004,67.12499999999999C387.96000000000004,70.43649014696399,385.271490146964,73.12499999999999,381.96000000000004,73.12499999999999L226,73.12499999999999C222.688509853036,73.12499999999999,220,70.43649014696399,220,67.12499999999999L220,67.12499999999999C220,63.81350985303599,222.688509853036,61.124999999999986,226,61.124999999999986Z" fill="#B6462F" opacity="1"/><path aria-label="trackStart: 220; team: Observability; barEnd: 653.16; bandColour: #0B8A6B; Team: Observability; Lab: Agentic Operations; Score: 98; Band: Healthy" role="graphics-symbol" aria-roledescription="bar" d="M226,331.875L647.1600000000001,331.875C650.4714901469641,331.875,653.1600000000001,334.563509853036,653.1600000000001,337.875L653.1600000000001,337.875C653.1600000000001,341.186490146964,650.4714901469641,343.875,647.1600000000001,343.875L226,343.875C222.688509853036,343.875,220,341.186490146964,220,337.875L220,337.875C220,334.563509853036,222.688509853036,331.875,226,331.875Z" fill="#0B8A6B" opacity="1"/><path aria-label="trackStart: 220; team: Data Platform; barEnd: 507.3; bandColour: #B9852C; Team: Data Platform; Lab: Data &amp; Insights; Score: 65; Band: Watch" role="graphics-symbol" aria-roledescription="bar" d="M226,151.37499999999997L501.3,151.37499999999997C504.611490146964,151.37499999999997,507.3,154.06350985303598,507.3,157.37499999999997L507.3,157.37499999999997C507.3,160.68649014696396,504.611490146964,163.37499999999997,501.3,163.37499999999997L226,163.37499999999997C222.688509853036,163.37499999999997,220,160.68649014696396,220,157.37499999999997L220,157.37499999999997C220,154.06350985303598,222.688509853036,151.37499999999997,226,151.37499999999997Z" fill="#B9852C" opacity="1"/><path aria-label="trackStart: 220; team: Actuarial Analytics; barEnd: 635.48; bandColour: #0B8A6B; Team: Actuarial Analytics; Lab: Data &amp; Insights; Score: 94; Band: Healthy" role="graphics-symbol" aria-roledescription="bar" d="M226,271.7083333333333L629.48,271.7083333333333C632.7914901469641,271.7083333333333,635.48,274.3968431863693,635.48,277.7083333333333L635.48,277.7083333333333C635.48,281.0198234802973,632.7914901469641,283.7083333333333,629.48,283.7083333333333L226,283.7083333333333C222.688509853036,283.7083333333333,220,281.0198234802973,220,277.7083333333333L220,277.7083333333333C220,274.3968431863693,222.688509853036,271.7083333333333,226,271.7083333333333Z" fill="#0B8A6B" opacity="1"/><path aria-label="trackStart: 220; team: Regulatory Reporting; barEnd: 432.16; bandColour: #B6462F; Team: Regulatory Reporting; Lab: Data &amp; Insights; Score: 48; Band: Act" role="graphics-symbol" aria-roledescription="bar" d="M226,91.20833333333331L426.15999999999997,91.20833333333331C429.47149014696396,91.20833333333331,432.15999999999997,93.89684318636931,432.15999999999997,97.20833333333331L432.15999999999997,97.20833333333331C432.15999999999997,100.51982348029732,429.47149014696396,103.20833333333331,426.15999999999997,103.20833333333331L226,103.20833333333331C222.688509853036,103.20833333333331,220,100.51982348029732,220,97.20833333333331L220,97.20833333333331C220,93.89684318636931,222.688509853036,91.20833333333331,226,91.20833333333331Z" fill="#B6462F" opacity="1"/></g><g class="mark-text role-mark layer_3_marks" role="graphics-object" aria-roledescription="text mark container"><text aria-label="team: Customer Portal; Team: Customer Portal; Lab: 24*7 Services; Score: 64; Band: Watch" role="graphics-symbol" aria-roledescription="text mark" text-anchor="start" transform="translate(30,131.29166666666666)" font-family="Segoe UI, wf_segoe-ui_normal, Arial, sans-serif" font-size="13px" fill="#0F4D43" opacity="1">Customer Portal</text><text aria-label="team: Claims Intake; Team: Claims Intake; Lab: 24*7 Services; Score: 88; Band: Healthy" role="graphics-symbol" aria-roledescription="text mark" text-anchor="start" transform="translate(30,251.62499999999997)" font-family="Segoe UI, wf_segoe-ui_normal, Arial, sans-serif" font-size="13px" fill="#0F4D43" opacity="1">Claims Intake</text><text aria-label="team: Policy Servicing; Team: Policy Servicing; Lab: 24*7 Services; Score: 78; Band: Watch" role="graphics-symbol" aria-roledescription="text mark" text-anchor="start" transform="translate(30,191.45833333333331)" font-family="Segoe UI, wf_segoe-ui_normal, Arial, sans-serif" font-size="13px" fill="#0F4D43" opacity="1">Policy Servicing</text><text aria-label="team: Adviser Workbench; Team: Adviser Workbench; Lab: Colleague Tooling; Score: 100; Band: Healthy" role="graphics-symbol" aria-roledescription="text mark" text-anchor="start" transform="translate(30,371.9583333333333)" font-family="Segoe UI, wf_segoe-ui_normal, Arial, sans-serif" font-size="13px" fill="#0F4D43" opacity="1">Adviser Workbench</text><text aria-label="team: Underwriting Desk; Team: Underwriting Desk; Lab: Colleague Tooling; Score: 81; Band: Healthy" role="graphics-symbol" aria-roledescription="text mark" text-anchor="start" transform="translate(30,221.54166666666666)" font-family="Segoe UI, wf_segoe-ui_normal, Arial, sans-serif" font-size="13px" fill="#0F4D43" opacity="1">Underwriting Desk</text><text aria-label="team: Contact Centre; Team: Contact Centre; Lab: Colleague Tooling; Score: 36; Band: Act" role="graphics-symbol" aria-roledescription="text mark" text-anchor="start" transform="translate(30,41.04166666666666)" font-family="Segoe UI, wf_segoe-ui_normal, Arial, sans-serif" font-size="13px" fill="#0F4D43" opacity="1">Contact Centre</text><text aria-label="team: Automation Platform; Team: Automation Platform; Lab: Agentic Operations; Score: 97; Band: Healthy" role="graphics-symbol" aria-roledescription="text mark" text-anchor="start" transform="translate(30,311.7916666666667)" font-family="Segoe UI, wf_segoe-ui_normal, Arial, sans-serif" font-size="13px" fill="#0F4D43" opacity="1">Automation Platform</text><text aria-label="team: Agent Runtime; Team: Agent Runtime; Lab: Agentic Operations; Score: 38; Band: Act" role="graphics-symbol" aria-roledescription="text mark" text-anchor="start" transform="translate(30,71.12499999999999)" font-family="Segoe UI, wf_segoe-ui_normal, Arial, sans-serif" font-size="13px" fill="#0F4D43" opacity="1">Agent Runtime</text><text aria-label="team: Observability; Team: Observability; Lab: Agentic Operations; Score: 98; Band: Healthy" role="graphics-symbol" aria-roledescription="text mark" text-anchor="start" transform="translate(30,341.875)" font-family="Segoe UI, wf_segoe-ui_normal, Arial, sans-serif" font-size="13px" fill="#0F4D43" opacity="1">Observability</text><text aria-label="team: Data Platform; Team: Data Platform; Lab: Data &amp; Insights; Score: 65; Band: Watch" role="graphics-symbol" aria-roledescription="text mark" text-anchor="start" transform="translate(30,161.37499999999997)" font-family="Segoe UI, wf_segoe-ui_normal, Arial, sans-serif" font-size="13px" fill="#0F4D43" opacity="1">Data Platform</text><text aria-label="team: Actuarial Analytics; Team: Actuarial Analytics; Lab: Data &amp; Insights; Score: 94; Band: Healthy" role="graphics-symbol" aria-roledescription="text mark" text-anchor="start" transform="translate(30,281.7083333333333)" font-family="Segoe UI, wf_segoe-ui_normal, Arial, sans-serif" font-size="13px" fill="#0F4D43" opacity="1">Actuarial Analytics</text><text aria-label="team: Regulatory Reporting; Team: Regulatory Reporting; Lab: Data &amp; Insights; Score: 48; Band: Act" role="graphics-symbol" aria-roledescription="text mark" text-anchor="start" transform="translate(30,101.20833333333331)" font-family="Segoe UI, wf_segoe-ui_normal, Arial, sans-serif" font-size="13px" fill="#0F4D43" opacity="1">Regulatory Reporting</text></g><g class="mark-text role-mark layer_4_marks" role="graphics-object" aria-roledescription="text mark container"><text aria-label="team: Customer Portal; labLine: ; Team: Customer Portal; Lab: 24*7 Services; Score: 64; Band: Watch" role="graphics-symbol" aria-roledescription="text mark" text-anchor="start" transform="translate(30,138.29166666666666)" font-family="Segoe UI, wf_segoe-ui_normal, Arial, sans-serif" font-size="11px" fill="#5F6E69" opacity="1"/><text aria-label="team: Claims Intake; labLine: ; Team: Claims Intake; Lab: 24*7 Services; Score: 88; Band: Healthy" role="graphics-symbol" aria-roledescription="text mark" text-anchor="start" transform="translate(30,258.625)" font-family="Segoe UI, wf_segoe-ui_normal, Arial, sans-serif" font-size="11px" fill="#5F6E69" opacity="1"/><text aria-label="team: Policy Servicing; labLine: ; Team: Policy Servicing; Lab: 24*7 Services; Score: 78; Band: Watch" role="graphics-symbol" aria-roledescription="text mark" text-anchor="start" transform="translate(30,198.45833333333331)" font-family="Segoe UI, wf_segoe-ui_normal, Arial, sans-serif" font-size="11px" fill="#5F6E69" opacity="1"/><text aria-label="team: Adviser Workbench; labLine: ; Team: Adviser Workbench; Lab: Colleague Tooling; Score: 100; Band: Healthy" role="graphics-symbol" aria-roledescription="text mark" text-anchor="start" transform="translate(30,378.9583333333333)" font-family="Segoe UI, wf_segoe-ui_normal, Arial, sans-serif" font-size="11px" fill="#5F6E69" opacity="1"/><text aria-label="team: Underwriting Desk; labLine: ; Team: Underwriting Desk; Lab: Colleague Tooling; Score: 81; Band: Healthy" role="graphics-symbol" aria-roledescription="text mark" text-anchor="start" transform="translate(30,228.54166666666666)" font-family="Segoe UI, wf_segoe-ui_normal, Arial, sans-serif" font-size="11px" fill="#5F6E69" opacity="1"/><text aria-label="team: Contact Centre; labLine: ; Team: Contact Centre; Lab: Colleague Tooling; Score: 36; Band: Act" role="graphics-symbol" aria-roledescription="text mark" text-anchor="start" transform="translate(30,48.04166666666666)" font-family="Segoe UI, wf_segoe-ui_normal, Arial, sans-serif" font-size="11px" fill="#5F6E69" opacity="1"/><text aria-label="team: Automation Platform; labLine: ; Team: Automation Platform; Lab: Agentic Operations; Score: 97; Band: Healthy" role="graphics-symbol" aria-roledescription="text mark" text-anchor="start" transform="translate(30,318.7916666666667)" font-family="Segoe UI, wf_segoe-ui_normal, Arial, sans-serif" font-size="11px" fill="#5F6E69" opacity="1"/><text aria-label="team: Agent Runtime; labLine: ; Team: Agent Runtime; Lab: Agentic Operations; Score: 38; Band: Act" role="graphics-symbol" aria-roledescription="text mark" text-anchor="start" transform="translate(30,78.12499999999999)" font-family="Segoe UI, wf_segoe-ui_normal, Arial, sans-serif" font-size="11px" fill="#5F6E69" opacity="1"/><text aria-label="team: Observability; labLine: ; Team: Observability; Lab: Agentic Operations; Score: 98; Band: Healthy" role="graphics-symbol" aria-roledescription="text mark" text-anchor="start" transform="translate(30,348.875)" font-family="Segoe UI, wf_segoe-ui_normal, Arial, sans-serif" font-size="11px" fill="#5F6E69" opacity="1"/><text aria-label="team: Data Platform; labLine: ; Team: Data Platform; Lab: Data &amp; Insights; Score: 65; Band: Watch" role="graphics-symbol" aria-roledescription="text mark" text-anchor="start" transform="translate(30,168.37499999999997)" font-family="Segoe UI, wf_segoe-ui_normal, Arial, sans-serif" font-size="11px" fill="#5F6E69" opacity="1"/><text aria-label="team: Actuarial Analytics; labLine: ; Team: Actuarial Analytics; Lab: Data &amp; Insights; Score: 94; Band: Healthy" role="graphics-symbol" aria-roledescription="text mark" text-anchor="start" transform="translate(30,288.7083333333333)" font-family="Segoe UI, wf_segoe-ui_normal, Arial, sans-serif" font-size="11px" fill="#5F6E69" opacity="1"/><text aria-label="team: Regulatory Reporting; labLine: ; Team: Regulatory Reporting; Lab: Data &amp; Insights; Score: 48; Band: Act" role="graphics-symbol" aria-roledescription="text mark" text-anchor="start" transform="translate(30,108.20833333333331)" font-family="Segoe UI, wf_segoe-ui_normal, Arial, sans-serif" font-size="11px" fill="#5F6E69" opacity="1"/></g><g class="mark-rect role-mark layer_5_marks" role="graphics-object" aria-roledescription="rect mark container"><path aria-label="chipColour: #1E5B4F; Team: Customer Portal; Lab: 24*7 Services; Score: 64; Band: Watch" role="graphics-symbol" aria-roledescription="rect mark" d="M4,118.29166666666666L18,118.29166666666666C20.207660097976,118.29166666666666,22,120.08400656869065,22,122.29166666666666L22,132.29166666666666C22,134.49932676464266,20.207660097976,136.29166666666666,18,136.29166666666666L4,136.29166666666666C1.792339902024,136.29166666666666,0,134.49932676464266,0,132.29166666666666L0,122.29166666666666C0,120.08400656869065,1.792339902024,118.29166666666666,4,118.29166666666666Z" fill="#1E5B4F" opacity="1"/><path aria-label="chipColour: #1E5B4F; Team: Claims Intake; Lab: 24*7 Services; Score: 88; Band: Healthy" role="graphics-symbol" aria-roledescription="rect mark" d="M4,238.62499999999997L18,238.62499999999997C20.207660097976,238.62499999999997,22,240.41733990202397,22,242.62499999999997L22,252.625C22,254.832660097976,20.207660097976,256.625,18,256.625L4,256.625C1.792339902024,256.625,0,254.832660097976,0,252.625L0,242.62499999999997C0,240.41733990202397,1.792339902024,238.62499999999997,4,238.62499999999997Z" fill="#1E5B4F" opacity="1"/><path aria-label="chipColour: #1E5B4F; Team: Policy Servicing; Lab: 24*7 Services; Score: 78; Band: Watch" role="graphics-symbol" aria-roledescription="rect mark" d="M4,178.45833333333331L18,178.45833333333331C20.207660097976,178.45833333333331,22,180.2506732353573,22,182.45833333333331L22,192.45833333333331C22,194.66599343130932,20.207660097976,196.45833333333331,18,196.45833333333331L4,196.45833333333331C1.792339902024,196.45833333333331,0,194.66599343130932,0,192.45833333333331L0,182.45833333333331C0,180.2506732353573,1.792339902024,178.45833333333331,4,178.45833333333331Z" fill="#1E5B4F" opacity="1"/><path aria-label="chipColour: #8E5E48; Team: Adviser Workbench; Lab: Colleague Tooling; Score: 100; Band: Healthy" role="graphics-symbol" aria-roledescription="rect mark" d="M4,358.9583333333333L18,358.9583333333333C20.207660097976,358.9583333333333,22,360.75067323535734,22,362.9583333333333L22,372.9583333333333C22,375.1659934313093,20.207660097976,376.9583333333333,18,376.9583333333333L4,376.9583333333333C1.792339902024,376.9583333333333,0,375.1659934313093,0,372.9583333333333L0,362.9583333333333C0,360.75067323535734,1.792339902024,358.9583333333333,4,358.9583333333333Z" fill="#8E5E48" opacity="1"/><path aria-label="chipColour: #8E5E48; Team: Underwriting Desk; Lab: Colleague Tooling; Score: 81; Band: Healthy" role="graphics-symbol" aria-roledescription="rect mark" d="M4,208.54166666666666L18,208.54166666666666C20.207660097976,208.54166666666666,22,210.33400656869065,22,212.54166666666666L22,222.54166666666666C22,224.74932676464266,20.207660097976,226.54166666666666,18,226.54166666666666L4,226.54166666666666C1.792339902024,226.54166666666666,0,224.74932676464266,0,222.54166666666666L0,212.54166666666666C0,210.33400656869065,1.792339902024,208.54166666666666,4,208.54166666666666Z" fill="#8E5E48" opacity="1"/><path aria-label="chipColour: #8E5E48; Team: Contact Centre; Lab: Colleague Tooling; Score: 36; Band: Act" role="graphics-symbol" aria-roledescription="rect mark" d="M4,28.041666666666657L18,28.041666666666657C20.207660097976,28.041666666666657,22,29.834006568690658,22,32.04166666666666L22,42.04166666666666C22,44.24932676464266,20.207660097976,46.04166666666666,18,46.04166666666666L4,46.04166666666666C1.792339902024,46.04166666666666,0,44.24932676464266,0,42.04166666666666L0,32.04166666666666C0,29.834006568690658,1.792339902024,28.041666666666657,4,28.041666666666657Z" fill="#8E5E48" opacity="1"/><path aria-label="chipColour: #44618A; Team: Automation Platform; Lab: Agentic Operations; Score: 97; Band: Healthy" role="graphics-symbol" aria-roledescription="rect mark" d="M4,298.7916666666667L18,298.7916666666667C20.207660097976,298.7916666666667,22,300.5840065686907,22,302.7916666666667L22,312.7916666666667C22,314.99932676464266,20.207660097976,316.7916666666667,18,316.7916666666667L4,316.7916666666667C1.792339902024,316.7916666666667,0,314.99932676464266,0,312.7916666666667L0,302.7916666666667C0,300.5840065686907,1.792339902024,298.7916666666667,4,298.7916666666667Z" fill="#44618A" opacity="1"/><path aria-label="chipColour: #44618A; Team: Agent Runtime; Lab: Agentic Operations; Score: 38; Band: Act" role="graphics-symbol" aria-roledescription="rect mark" d="M4,58.124999999999986L18,58.124999999999986C20.207660097976,58.124999999999986,22,59.91733990202398,22,62.124999999999986L22,72.12499999999999C22,74.33266009797599,20.207660097976,76.12499999999999,18,76.12499999999999L4,76.12499999999999C1.792339902024,76.12499999999999,0,74.33266009797599,0,72.12499999999999L0,62.124999999999986C0,59.91733990202398,1.792339902024,58.124999999999986,4,58.124999999999986Z" fill="#44618A" opacity="1"/><path aria-label="chipColour: #44618A; Team: Observability; Lab: Agentic Operations; Score: 98; Band: Healthy" role="graphics-symbol" aria-roledescription="rect mark" d="M4,328.875L18,328.875C20.207660097976,328.875,22,330.667339902024,22,332.875L22,342.875C22,345.082660097976,20.207660097976,346.875,18,346.875L4,346.875C1.792339902024,346.875,0,345.082660097976,0,342.875L0,332.875C0,330.667339902024,1.792339902024,328.875,4,328.875Z" fill="#44618A" opacity="1"/><path aria-label="chipColour: #1A6F7C; Team: Data Platform; Lab: Data &amp; Insights; Score: 65; Band: Watch" role="graphics-symbol" aria-roledescription="rect mark" d="M4,148.37499999999997L18,148.37499999999997C20.207660097976,148.37499999999997,22,150.16733990202397,22,152.37499999999997L22,162.37499999999997C22,164.58266009797597,20.207660097976,166.37499999999997,18,166.37499999999997L4,166.37499999999997C1.792339902024,166.37499999999997,0,164.58266009797597,0,162.37499999999997L0,152.37499999999997C0,150.16733990202397,1.792339902024,148.37499999999997,4,148.37499999999997Z" fill="#1A6F7C" opacity="1"/><path aria-label="chipColour: #1A6F7C; Team: Actuarial Analytics; Lab: Data &amp; Insights; Score: 94; Band: Healthy" role="graphics-symbol" aria-roledescription="rect mark" d="M4,268.7083333333333L18,268.7083333333333C20.207660097976,268.7083333333333,22,270.50067323535734,22,272.7083333333333L22,282.7083333333333C22,284.9159934313093,20.207660097976,286.7083333333333,18,286.7083333333333L4,286.7083333333333C1.792339902024,286.7083333333333,0,284.9159934313093,0,282.7083333333333L0,272.7083333333333C0,270.50067323535734,1.792339902024,268.7083333333333,4,268.7083333333333Z" fill="#1A6F7C" opacity="1"/><path aria-label="chipColour: #1A6F7C; Team: Regulatory Reporting; Lab: Data &amp; Insights; Score: 48; Band: Act" role="graphics-symbol" aria-roledescription="rect mark" d="M4,88.20833333333331L18,88.20833333333331C20.207660097976,88.20833333333331,22,90.00067323535731,22,92.20833333333331L22,102.20833333333331C22,104.41599343130932,20.207660097976,106.20833333333331,18,106.20833333333331L4,106.20833333333331C1.792339902024,106.20833333333331,0,104.41599343130932,0,102.20833333333331L0,92.20833333333331C0,90.00067323535731,1.792339902024,88.20833333333331,4,88.20833333333331Z" fill="#1A6F7C" opacity="1"/></g><g class="mark-text role-mark layer_6_marks" role="graphics-object" aria-roledescription="text mark container"><text aria-label="team: Customer Portal; chipCode: 24; Team: Customer Portal; Lab: 24*7 Services; Score: 64; Band: Watch" role="graphics-symbol" aria-roledescription="text mark" text-anchor="middle" transform="translate(11,130.29166666666666)" font-family="JetBrains Mono, Consolas, monospace" font-size="10px" font-weight="700" fill="#FFFFFF" opacity="1">24</text><text aria-label="team: Claims Intake; chipCode: 24; Team: Claims Intake; Lab: 24*7 Services; Score: 88; Band: Healthy" role="graphics-symbol" aria-roledescription="text mark" text-anchor="middle" transform="translate(11,250.62499999999997)" font-family="JetBrains Mono, Consolas, monospace" font-size="10px" font-weight="700" fill="#FFFFFF" opacity="1">24</text><text aria-label="team: Policy Servicing; chipCode: 24; Team: Policy Servicing; Lab: 24*7 Services; Score: 78; Band: Watch" role="graphics-symbol" aria-roledescription="text mark" text-anchor="middle" transform="translate(11,190.45833333333331)" font-family="JetBrains Mono, Consolas, monospace" font-size="10px" font-weight="700" fill="#FFFFFF" opacity="1">24</text><text aria-label="team: Adviser Workbench; chipCode: CT; Team: Adviser Workbench; Lab: Colleague Tooling; Score: 100; Band: Healthy" role="graphics-symbol" aria-roledescription="text mark" text-anchor="middle" transform="translate(11,370.9583333333333)" font-family="JetBrains Mono, Consolas, monospace" font-size="10px" font-weight="700" fill="#FFFFFF" opacity="1">CT</text><text aria-label="team: Underwriting Desk; chipCode: CT; Team: Underwriting Desk; Lab: Colleague Tooling; Score: 81; Band: Healthy" role="graphics-symbol" aria-roledescription="text mark" text-anchor="middle" transform="translate(11,220.54166666666666)" font-family="JetBrains Mono, Consolas, monospace" font-size="10px" font-weight="700" fill="#FFFFFF" opacity="1">CT</text><text aria-label="team: Contact Centre; chipCode: CT; Team: Contact Centre; Lab: Colleague Tooling; Score: 36; Band: Act" role="graphics-symbol" aria-roledescription="text mark" text-anchor="middle" transform="translate(11,40.04166666666666)" font-family="JetBrains Mono, Consolas, monospace" font-size="10px" font-weight="700" fill="#FFFFFF" opacity="1">CT</text><text aria-label="team: Automation Platform; chipCode: AO; Team: Automation Platform; Lab: Agentic Operations; Score: 97; Band: Healthy" role="graphics-symbol" aria-roledescription="text mark" text-anchor="middle" transform="translate(11,310.7916666666667)" font-family="JetBrains Mono, Consolas, monospace" font-size="10px" font-weight="700" fill="#FFFFFF" opacity="1">AO</text><text aria-label="team: Agent Runtime; chipCode: AO; Team: Agent Runtime; Lab: Agentic Operations; Score: 38; Band: Act" role="graphics-symbol" aria-roledescription="text mark" text-anchor="middle" transform="translate(11,70.12499999999999)" font-family="JetBrains Mono, Consolas, monospace" font-size="10px" font-weight="700" fill="#FFFFFF" opacity="1">AO</text><text aria-label="team: Observability; chipCode: AO; Team: Observability; Lab: Agentic Operations; Score: 98; Band: Healthy" role="graphics-symbol" aria-roledescription="text mark" text-anchor="middle" transform="translate(11,340.875)" font-family="JetBrains Mono, Consolas, monospace" font-size="10px" font-weight="700" fill="#FFFFFF" opacity="1">AO</text><text aria-label="team: Data Platform; chipCode: DI; Team: Data Platform; Lab: Data &amp; Insights; Score: 65; Band: Watch" role="graphics-symbol" aria-roledescription="text mark" text-anchor="middle" transform="translate(11,160.37499999999997)" font-family="JetBrains Mono, Consolas, monospace" font-size="10px" font-weight="700" fill="#FFFFFF" opacity="1">DI</text><text aria-label="team: Actuarial Analytics; chipCode: DI; Team: Actuarial Analytics; Lab: Data &amp; Insights; Score: 94; Band: Healthy" role="graphics-symbol" aria-roledescription="text mark" text-anchor="middle" transform="translate(11,280.7083333333333)" font-family="JetBrains Mono, Consolas, monospace" font-size="10px" font-weight="700" fill="#FFFFFF" opacity="1">DI</text><text aria-label="team: Regulatory Reporting; chipCode: DI; Team: Regulatory Reporting; Lab: Data &amp; Insights; Score: 48; Band: Act" role="graphics-symbol" aria-roledescription="text mark" text-anchor="middle" transform="translate(11,100.20833333333331)" font-family="JetBrains Mono, Consolas, monospace" font-size="10px" font-weight="700" fill="#FFFFFF" opacity="1">DI</text></g><g class="mark-text role-mark layer_7_marks" role="graphics-object" aria-roledescription="text mark container"><text aria-label="team: Customer Portal; valueLabel: 64 · Watch; Team: Customer Portal; Lab: 24*7 Services; Score: 64; Band: Watch" role="graphics-symbol" aria-roledescription="text mark" text-anchor="end" transform="translate(784,131.29166666666666)" font-family="JetBrains Mono, Consolas, monospace" font-size="13px" font-weight="600" fill="#0F4D43" opacity="1">64 · Watch</text><text aria-label="team: Claims Intake; valueLabel: 88 · Healthy; Team: Claims Intake; Lab: 24*7 Services; Score: 88; Band: Healthy" role="graphics-symbol" aria-roledescription="text mark" text-anchor="end" transform="translate(784,251.62499999999997)" font-family="JetBrains Mono, Consolas, monospace" font-size="13px" font-weight="600" fill="#0F4D43" opacity="1">88 · Healthy</text><text aria-label="team: Policy Servicing; valueLabel: 78 · Watch; Team: Policy Servicing; Lab: 24*7 Services; Score: 78; Band: Watch" role="graphics-symbol" aria-roledescription="text mark" text-anchor="end" transform="translate(784,191.45833333333331)" font-family="JetBrains Mono, Consolas, monospace" font-size="13px" font-weight="600" fill="#0F4D43" opacity="1">78 · Watch</text><text aria-label="team: Adviser Workbench; valueLabel: 100 · Healthy; Team: Adviser Workbench; Lab: Colleague Tooling; Score: 100; Band: Healthy" role="graphics-symbol" aria-roledescription="text mark" text-anchor="end" transform="translate(784,371.9583333333333)" font-family="JetBrains Mono, Consolas, monospace" font-size="13px" font-weight="600" fill="#0F4D43" opacity="1">100 · Healthy</text><text aria-label="team: Underwriting Desk; valueLabel: 81 · Healthy; Team: Underwriting Desk; Lab: Colleague Tooling; Score: 81; Band: Healthy" role="graphics-symbol" aria-roledescription="text mark" text-anchor="end" transform="translate(784,221.54166666666666)" font-family="JetBrains Mono, Consolas, monospace" font-size="13px" font-weight="600" fill="#0F4D43" opacity="1">81 · Healthy</text><text aria-label="team: Contact Centre; valueLabel: 36 · Act; Team: Contact Centre; Lab: Colleague Tooling; Score: 36; Band: Act" role="graphics-symbol" aria-roledescription="text mark" text-anchor="end" transform="translate(784,41.04166666666666)" font-family="JetBrains Mono, Consolas, monospace" font-size="13px" font-weight="600" fill="#0F4D43" opacity="1">36 · Act</text><text aria-label="team: Automation Platform; valueLabel: 97 · Healthy; Team: Automation Platform; Lab: Agentic Operations; Score: 97; Band: Healthy" role="graphics-symbol" aria-roledescription="text mark" text-anchor="end" transform="translate(784,311.7916666666667)" font-family="JetBrains Mono, Consolas, monospace" font-size="13px" font-weight="600" fill="#0F4D43" opacity="1">97 · Healthy</text><text aria-label="team: Agent Runtime; valueLabel: 38 · Act; Team: Agent Runtime; Lab: Agentic Operations; Score: 38; Band: Act" role="graphics-symbol" aria-roledescription="text mark" text-anchor="end" transform="translate(784,71.12499999999999)" font-family="JetBrains Mono, Consolas, monospace" font-size="13px" font-weight="600" fill="#0F4D43" opacity="1">38 · Act</text><text aria-label="team: Observability; valueLabel: 98 · Healthy; Team: Observability; Lab: Agentic Operations; Score: 98; Band: Healthy" role="graphics-symbol" aria-roledescription="text mark" text-anchor="end" transform="translate(784,341.875)" font-family="JetBrains Mono, Consolas, monospace" font-size="13px" font-weight="600" fill="#0F4D43" opacity="1">98 · Healthy</text><text aria-label="team: Data Platform; valueLabel: 65 · Watch; Team: Data Platform; Lab: Data &amp; Insights; Score: 65; Band: Watch" role="graphics-symbol" aria-roledescription="text mark" text-anchor="end" transform="translate(784,161.37499999999997)" font-family="JetBrains Mono, Consolas, monospace" font-size="13px" font-weight="600" fill="#0F4D43" opacity="1">65 · Watch</text><text aria-label="team: Actuarial Analytics; valueLabel: 94 · Healthy; Team: Actuarial Analytics; Lab: Data &amp; Insights; Score: 94; Band: Healthy" role="graphics-symbol" aria-roledescription="text mark" text-anchor="end" transform="translate(784,281.7083333333333)" font-family="JetBrains Mono, Consolas, monospace" font-size="13px" font-weight="600" fill="#0F4D43" opacity="1">94 · Healthy</text><text aria-label="team: Regulatory Reporting; valueLabel: 48 · Act; Team: Regulatory Reporting; Lab: Data &amp; Insights; Score: 48; Band: Act" role="graphics-symbol" aria-roledescription="text mark" text-anchor="end" transform="translate(784,101.20833333333331)" font-family="JetBrains Mono, Consolas, monospace" font-size="13px" font-weight="600" fill="#0F4D43" opacity="1">48 · Act</text></g><g class="mark-rule role-mark layer_8_layer_0_marks" role="graphics-object" aria-roledescription="rule mark container" pointer-events="none"><line aria-label="meanX: 547.08" role="graphics-symbol" aria-roledescription="rule mark" transform="translate(547.0799999999999,18)" x2="0" y2="365" stroke="#0F4D43" stroke-width="1.5" stroke-dasharray="4,3" opacity="1"/></g><g class="mark-text role-mark layer_8_layer_1_marks" role="graphics-object" aria-roledescription="text mark container"><text aria-label="meanX: 547.08; meanLabel: Scope mean 74; Scope mean: 74" role="graphics-symbol" aria-roledescription="text mark" text-anchor="middle" transform="translate(547.0799999999999,11)" font-family="JetBrains Mono, Consolas, monospace" font-size="11px" font-weight="600" fill="#0F4D43" opacity="1">Scope mean 74</text></g><g class="mark-group role-title"><g transform="translate(0,-18.5)"><path class="background" aria-hidden="true" d="M0,0h0v0h0Z" pointer-events="none"/><g><g class="mark-text role-title-text" role="graphics-symbol" aria-roledescription="title" aria-label="Title text 'DOMAIN SCORE BY TEAM'" pointer-events="none"><text text-anchor="start" transform="translate(0,10)" font-family="JetBrains Mono, Consolas, monospace" font-size="12.5px" font-weight="600" fill="#5F6E69" opacity="1">DOMAIN SCORE BY TEAM</text></g></g><path class="foreground" aria-hidden="true" d="" pointer-events="none" display="none"/></g></g></g><path class="foreground" aria-hidden="true" d="" display="none"/></g></g></g></svg>