<svg xmlns="http://www.w3.org/2000/svg" xmlns:xlink="http://www.w3.org/1999/xlink" version="1.1" class="marks" width="1824" height="180" viewBox="0 0 1824 180"><g fill="none" stroke-miterlimit="10" transform="translate(8,28)"><g class="mark-group role-frame root" role="graphics-object" aria-roledescription="group mark container"><g transform="translate(0,0)"><path class="background" aria-hidden="true" d="M0,0h1808v143h-1808Z"/><g><g class="mark-rect role-mark layer_0_marks" role="graphics-object" aria-roledescription="rect mark container"><path aria-label="c0: 0; c1: 1; Metric: Open SNCs; Value: 106; Target: Target 72; Progress: 68% of target; Change: ▲ +10 worse over the period; Band: WATCH" role="graphics-symbol" aria-roledescription="rect mark" d="M24,0L578.6666666666666,0C588.6011371075587,0,596.6666666666666,8.065529559108,596.6666666666666,18L596.6666666666666,125C596.6666666666666,134.934470440892,588.6011371075587,143,578.6666666666666,143L24,143C14.065529559108,143,6,134.934470440892,6,125L6,18C6,8.065529559108,14.065529559108,0,24,0Z" fill="#FFFFFF" stroke="#D6D9D2" stroke-width="1" opacity="1"/><path aria-label="c0: 1; c1: 2; Metric: Median SNC age; Value: 21.2 days; Target: Target 14 days; Progress: 66% of target; Change: ▲ +2.3 days worse over the period; Band: WATCH" role="graphics-symbol" aria-roledescription="rect mark" d="M626.6666666666666,0L1181.3333333333333,0C1191.2678037742253,0,1199.3333333333333,8.065529559108,1199.3333333333333,18L1199.3333333333333,125C1199.3333333333333,134.934470440892,1191.2678037742253,143,1181.3333333333333,143L626.6666666666666,143C616.7321962257746,143,608.6666666666666,134.934470440892,608.6666666666666,125L608.6666666666666,18C608.6666666666666,8.065529559108,616.7321962257746,0,626.6666666666666,0Z" fill="#FFFFFF" stroke="#D6D9D2" stroke-width="1" opacity="1"/><path aria-label="c0: 2; c1: 3; Metric: Repeat SNCs; Value: 14.3%; Target: Target 10%; Progress: 70% of target; Change: ▲ +4.9% worse over the period; Band: WATCH" role="graphics-symbol" aria-roledescription="rect mark" d="M1229.3333333333333,0L1784,0C1793.934470440892,0,1802,8.065529559108,1802,18L1802,125C1802,134.934470440892,1793.934470440892,143,1784,143L1229.3333333333333,143C1219.3988628924412,143,1211.3333333333333,134.934470440892,1211.3333333333333,125L1211.3333333333333,18C1211.3333333333333,8.065529559108,1219.3988628924412,0,1229.3333333333333,0Z" fill="#FFFFFF" stroke="#D6D9D2" stroke-width="1" opacity="1"/></g><g class="mark-text role-mark layer_1_marks" role="graphics-object" aria-roledescription="text mark container"><text aria-label="c0: 0; kickerLines: OPEN SNCS; Metric: Open SNCs; Value: 106; Target: Target 72; Progress: 68% of target; Change: ▲ +10 worse over the period; Band: WATCH" role="graphics-symbol" aria-roledescription="text mark" text-anchor="start" transform="translate(30,34)" font-family="JetBrains Mono, Consolas, monospace" font-size="12.5px" font-weight="600" fill="#5F6E69" opacity="1">OPEN SNCS</text><text aria-label="c0: 1; kickerLines: MEDIAN SNC AGE; Metric: Median SNC age; Value: 21.2 days; Target: Target 14 days; Progress: 66% of target; Change: ▲ +2.3 days worse over the period; Band: WATCH" role="graphics-symbol" aria-roledescription="text mark" text-anchor="start" transform="translate(632.6666666666666,34)" font-family="JetBrains Mono, Consolas, monospace" font-size="12.5px" font-weight="600" fill="#5F6E69" opacity="1">MEDIAN SNC AGE</text><text aria-label="c0: 2; kickerLines: REPEAT SNCS; Metric: Repeat SNCs; Value: 14.3%; Target: Target 10%; Progress: 70% of target; Change: ▲ +4.9% worse over the period; Band: WATCH" role="graphics-symbol" aria-roledescription="text mark" text-anchor="start" transform="translate(1235.3333333333333,34)" font-family="JetBrains Mono, Consolas, monospace" font-size="12.5px" font-weight="600" fill="#5F6E69" opacity="1">REPEAT SNCS</text></g><g class="mark-rect role-mark layer_2_layer_0_marks" role="graphics-object" aria-roledescription="rect mark container"><path aria-label="pillX: 501.666666667; pillX2: 572.666666667; pillFill: #F5EAD6; bandKey: #B9852C; Metric: Open SNCs; Value: 106; Target: Target 72; Progress: 68% of target; Change: ▲ +10 worse over the period; Band: WATCH" role="graphics-symbol" aria-roledescription="rect mark" d="M513.6666666666666,18L560.6666666666666,18C567.2896469605946,18,572.6666666666666,23.377019706071998,572.6666666666666,30L572.6666666666666,30C572.6666666666666,36.622980293928,567.2896469605946,42,560.6666666666666,42L513.6666666666666,42C507.04368637273865,42,501.66666666666663,36.622980293928,501.66666666666663,30L501.66666666666663,30C501.66666666666663,23.377019706071998,507.04368637273865,18,513.6666666666666,18Z" fill="#F5EAD6" stroke="#B9852C" stroke-opacity="0.35" stroke-width="1" opacity="1"/><path aria-label="pillX: 1104.33333333; pillX2: 1175.33333333; pillFill: #F5EAD6; bandKey: #B9852C; Metric: Median SNC age; Value: 21.2 days; Target: Target 14 days; Progress: 66% of target; Change: ▲ +2.3 days worse over the period; Band: WATCH" role="graphics-symbol" aria-roledescription="rect mark" d="M1116.3333333333333,18L1163.3333333333333,18C1169.9563136272614,18,1175.3333333333333,23.377019706071998,1175.3333333333333,30L1175.3333333333333,30C1175.3333333333333,36.622980293928,1169.9563136272614,42,1163.3333333333333,42L1116.3333333333333,42C1109.7103530394052,42,1104.3333333333333,36.622980293928,1104.3333333333333,30L1104.3333333333333,30C1104.3333333333333,23.377019706071998,1109.7103530394052,18,1116.3333333333333,18Z" fill="#F5EAD6" stroke="#B9852C" stroke-opacity="0.35" stroke-width="1" opacity="1"/><path aria-label="pillX: 1707; pillX2: 1778; pillFill: #F5EAD6; bandKey: #B9852C; Metric: Repeat SNCs; Value: 14.3%; Target: Target 10%; Progress: 70% of target; Change: ▲ +4.9% worse over the period; Band: WATCH" role="graphics-symbol" aria-roledescription="rect mark" d="M1719,18L1766,18C1772.622980293928,18,1778,23.377019706071998,1778,30L1778,30C1778,36.622980293928,1772.622980293928,42,1766,42L1719,42C1712.377019706072,42,1707,36.622980293928,1707,30L1707,30C1707,23.377019706071998,1712.377019706072,18,1719,18Z" fill="#F5EAD6" stroke="#B9852C" stroke-opacity="0.35" stroke-width="1" opacity="1"/></g><g class="mark-symbol role-mark layer_2_layer_1_marks" role="graphics-object" aria-roledescription="symbol mark container"><path aria-label="pillDotX: 516.666666667; bandKey: #B9852C; Metric: Open SNCs; Value: 106; Target: Target 72; Progress: 68% of target; Change: ▲ +10 worse over the period; Band: WATCH" role="graphics-symbol" aria-roledescription="circle" transform="translate(516.6666666666666,30)" d="M4,0A4,4,0,1,1,-4,0A4,4,0,1,1,4,0" fill="#B9852C" stroke-width="2" opacity="1"/><path aria-label="pillDotX: 1119.33333333; bandKey: #B9852C; Metric: Median SNC age; Value: 21.2 days; Target: Target 14 days; Progress: 66% of target; Change: ▲ +2.3 days worse over the period; Band: WATCH" role="graphics-symbol" aria-roledescription="circle" transform="translate(1119.3333333333333,30)" d="M4,0A4,4,0,1,1,-4,0A4,4,0,1,1,4,0" fill="#B9852C" stroke-width="2" opacity="1"/><path aria-label="pillDotX: 1722; bandKey: #B9852C; Metric: Repeat SNCs; Value: 14.3%; Target: Target 10%; Progress: 70% of target; Change: ▲ +4.9% worse over the period; Band: WATCH" role="graphics-symbol" aria-roledescription="circle" transform="translate(1722,30)" d="M4,0A4,4,0,1,1,-4,0A4,4,0,1,1,4,0" fill="#B9852C" stroke-width="2" opacity="1"/></g><g class="mark-text role-mark layer_2_layer_2_marks" role="graphics-object" aria-roledescription="text mark container"><text aria-label="pillTextX: 526.666666667; bandWord: WATCH; Metric: Open SNCs; Value: 106; Target: Target 72; Progress: 68% of target; Change: ▲ +10 worse over the period; Band: WATCH" role="graphics-symbol" aria-roledescription="text mark" text-anchor="start" transform="translate(526.6666666666666,34)" font-family="JetBrains Mono, Consolas, monospace" font-size="12.5px" font-weight="600" fill="#0F4D43" opacity="1">WATCH</text><text aria-label="pillTextX: 1129.33333333; bandWord: WATCH; Metric: Median SNC age; Value: 21.2 days; Target: Target 14 days; Progress: 66% of target; Change: ▲ +2.3 days worse over the period; Band: WATCH" role="graphics-symbol" aria-roledescription="text mark" text-anchor="start" transform="translate(1129.3333333333333,34)" font-family="JetBrains Mono, Consolas, monospace" font-size="12.5px" font-weight="600" fill="#0F4D43" opacity="1">WATCH</text><text aria-label="pillTextX: 1732; bandWord: WATCH; Metric: Repeat SNCs; Value: 14.3%; Target: Target 10%; Progress: 70% of target; Change: ▲ +4.9% worse over the period; Band: WATCH" role="graphics-symbol" aria-roledescription="text mark" text-anchor="start" transform="translate(1732,34)" font-family="JetBrains Mono, Consolas, monospace" font-size="12.5px" font-weight="600" fill="#0F4D43" opacity="1">WATCH</text></g><g class="mark-text role-mark layer_3_marks" role="graphics-object" aria-roledescription="text mark container"><text aria-label="c0: 0; valueNum: 106; Metric: Open SNCs; Value: 106; Target: Target 72; Progress: 68% of target; Change: ▲ +10 worse over the period; Band: WATCH" role="graphics-symbol" aria-roledescription="text mark" text-anchor="start" transform="translate(30,90)" font-family="Fraunces, Cambria, Georgia, serif" font-size="44px" font-weight="600" fill="#0F4D43" opacity="1">106</text><text aria-label="c0: 1; valueNum: 21.2; Metric: Median SNC age; Value: 21.2 days; Target: Target 14 days; Progress: 66% of target; Change: ▲ +2.3 days worse over the period; Band: WATCH" role="graphics-symbol" aria-roledescription="text mark" text-anchor="start" transform="translate(632.6666666666666,90)" font-family="Fraunces, Cambria, Georgia, serif" font-size="44px" font-weight="600" fill="#0F4D43" opacity="1">21.2</text><text aria-label="c0: 2; valueNum: 14.3%; Metric: Repeat SNCs; Value: 14.3%; Target: Target 10%; Progress: 70% of target; Change: ▲ +4.9% worse over the period; Band: WATCH" role="graphics-symbol" aria-roledescription="text mark" text-anchor="start" transform="translate(1235.3333333333333,90)" font-family="Fraunces, Cambria, Georgia, serif" font-size="44px" font-weight="600" fill="#0F4D43" opacity="1">14.3%</text></g><g class="mark-text role-mark layer_4_marks" role="graphics-object" aria-roledescription="text mark container"><text aria-label="unitX: 737.226666667; unitWord: days; Metric: Median SNC age; Value: 21.2 days; Target: Target 14 days; Progress: 66% of target; Change: ▲ +2.3 days worse over the period; Band: WATCH" role="graphics-symbol" aria-roledescription="text mark" text-anchor="start" transform="translate(737.2266666666667,90)" font-family="Segoe UI, wf_segoe-ui_normal, Arial, sans-serif" font-size="14px" fill="#5F6E69" opacity="1">days</text></g><g class="mark-rect role-mark layer_5_layer_0_marks" role="graphics-object" aria-roledescription="rect mark container"><path aria-label="barX: 30; barEnd: 277.226666667; Metric: Open SNCs; Value: 106; Target: Target 72; Progress: 68% of target; Change: ▲ +10 worse over the period; Band: WATCH" role="graphics-symbol" aria-roledescription="rect mark" d="M33,102L274.2266666666667,102C275.8824117401487,102,277.2266666666667,103.344254926518,277.2266666666667,105L277.2266666666667,105C277.2266666666667,106.655745073482,275.8824117401487,108,274.2266666666667,108L33,108C31.344254926518,108,30,106.655745073482,30,105L30,105C30,103.344254926518,31.344254926518,102,33,102Z" fill="#DCE8E0" opacity="1"/><path aria-label="barX: 632.666666667; barEnd: 879.893333333; Metric: Median SNC age; Value: 21.2 days; Target: Target 14 days; Progress: 66% of target; Change: ▲ +2.3 days worse over the period; Band: WATCH" role="graphics-symbol" aria-roledescription="rect mark" d="M635.6666666666666,102L876.8933333333333,102C878.5490784068153,102,879.8933333333333,103.344254926518,879.8933333333333,105L879.8933333333333,105C879.8933333333333,106.655745073482,878.5490784068153,108,876.8933333333333,108L635.6666666666666,108C634.0109215931847,108,632.6666666666666,106.655745073482,632.6666666666666,105L632.6666666666666,105C632.6666666666666,103.344254926518,634.0109215931847,102,635.6666666666666,102Z" fill="#DCE8E0" opacity="1"/><path aria-label="barX: 1235.33333333; barEnd: 1482.56; Metric: Repeat SNCs; Value: 14.3%; Target: Target 10%; Progress: 70% of target; Change: ▲ +4.9% worse over the period; Band: WATCH" role="graphics-symbol" aria-roledescription="rect mark" d="M1238.3333333333333,102L1479.56,102C1481.215745073482,102,1482.56,103.344254926518,1482.56,105L1482.56,105C1482.56,106.655745073482,1481.215745073482,108,1479.56,108L1238.3333333333333,108C1236.6775882598513,108,1235.3333333333333,106.655745073482,1235.3333333333333,105L1235.3333333333333,105C1235.3333333333333,103.344254926518,1236.6775882598513,102,1238.3333333333333,102Z" fill="#DCE8E0" opacity="1"/></g><g class="mark-rect role-mark layer_5_layer_1_marks" role="graphics-object" aria-roledescription="rect mark container"><path aria-label="barX: 30; barFillEnd: 197.92754717; bandKey: #B9852C; Metric: Open SNCs; Value: 106; Target: Target 72; Progress: 68% of target; Change: ▲ +10 worse over the period; Band: WATCH" role="graphics-symbol" aria-roledescription="rect mark" d="M33,102L194.92754716981133,102C196.58329224329333,102,197.92754716981133,103.344254926518,197.92754716981133,105L197.92754716981133,105C197.92754716981133,106.655745073482,196.58329224329333,108,194.92754716981133,108L33,108C31.344254926518,108,30,106.655745073482,30,105L30,105C30,103.344254926518,31.344254926518,102,33,102Z" fill="#B9852C" opacity="1"/><path aria-label="barX: 632.666666667; barFillEnd: 795.929559748; bandKey: #B9852C; Metric: Median SNC age; Value: 21.2 days; Target: Target 14 days; Progress: 66% of target; Change: ▲ +2.3 days worse over the period; Band: WATCH" role="graphics-symbol" aria-roledescription="rect mark" d="M635.6666666666666,102L792.9295597484277,102C794.5853048219096,102,795.9295597484277,103.344254926518,795.9295597484277,105L795.9295597484277,105C795.9295597484277,106.655745073482,794.5853048219096,108,792.9295597484277,108L635.6666666666666,108C634.0109215931847,108,632.6666666666666,106.655745073482,632.6666666666666,105L632.6666666666666,105C632.6666666666666,103.344254926518,634.0109215931847,102,635.6666666666666,102Z" fill="#B9852C" opacity="1"/><path aria-label="barX: 1235.33333333; barFillEnd: 1408.21911422; bandKey: #B9852C; Metric: Repeat SNCs; Value: 14.3%; Target: Target 10%; Progress: 70% of target; Change: ▲ +4.9% worse over the period; Band: WATCH" role="graphics-symbol" aria-roledescription="rect mark" d="M1238.3333333333333,102L1405.219114219114,102C1406.874859292596,102,1408.219114219114,103.344254926518,1408.219114219114,105L1408.219114219114,105C1408.219114219114,106.655745073482,1406.874859292596,108,1405.219114219114,108L1238.3333333333333,108C1236.6775882598513,108,1235.3333333333333,106.655745073482,1235.3333333333333,105L1235.3333333333333,105C1235.3333333333333,103.344254926518,1236.6775882598513,102,1238.3333333333333,102Z" fill="#B9852C" opacity="1"/></g><g class="mark-text role-mark layer_5_layer_2_marks" role="graphics-object" aria-roledescription="text mark container"><text aria-label="progressX: 285.226666667; progressShort: 68%; Metric: Open SNCs; Value: 106; Target: Target 72; Progress: 68% of target; Change: ▲ +10 worse over the period; Band: WATCH" role="graphics-symbol" aria-roledescription="text mark" text-anchor="start" transform="translate(285.2266666666667,108)" font-family="JetBrains Mono, Consolas, monospace" font-size="11.5px" font-weight="600" fill="#5F6E69" opacity="1">68%</text><text aria-label="progressX: 887.893333333; progressShort: 66%; Metric: Median SNC age; Value: 21.2 days; Target: Target 14 days; Progress: 66% of target; Change: ▲ +2.3 days worse over the period; Band: WATCH" role="graphics-symbol" aria-roledescription="text mark" text-anchor="start" transform="translate(887.8933333333333,108)" font-family="JetBrains Mono, Consolas, monospace" font-size="11.5px" font-weight="600" fill="#5F6E69" opacity="1">66%</text><text aria-label="progressX: 1490.56; progressShort: 70%; Metric: Repeat SNCs; Value: 14.3%; Target: Target 10%; Progress: 70% of target; Change: ▲ +4.9% worse over the period; Band: WATCH" role="graphics-symbol" aria-roledescription="text mark" text-anchor="start" transform="translate(1490.56,108)" font-family="JetBrains Mono, Consolas, monospace" font-size="11.5px" font-weight="600" fill="#5F6E69" opacity="1">70%</text></g><g class="mark-group role-scope layer_6_layer_0_pathgroup" role="graphics-object" aria-roledescription="group mark container"><g transform="translate(0,0)"><path class="background" aria-hidden="true" d="M0,0h1808v143h-1808Z"/><g><g class="mark-area role-mark layer_6_layer_0_marks" role="graphics-object" aria-roledescription="area mark container"><path aria-label="sx: 337.493333333; sy: 93.8461538462; sparkBase: 108; metricId: openSncs; Metric: Open SNCs; Value: 106; Target: Target 72; Progress: 68% of target; Change: ▲ +10 worse over the period; Band: WATCH" role="graphics-symbol" aria-roledescription="area mark" d="M337.493,93.846L384.528,104L431.563,87.077L478.597,80.308L525.632,70.154L572.667,60L572.667,108L525.632,108L478.597,108L431.563,108L384.528,108L337.493,108Z" fill="#0B8A6B" opacity="0.15"/></g></g><path class="foreground" aria-hidden="true" d="" display="none"/></g><g transform="translate(0,0)"><path class="background" aria-hidden="true" d="M0,0h1808v143h-1808Z"/><g><g class="mark-area role-mark layer_6_layer_0_marks" role="graphics-object" aria-roledescription="area mark container"><path aria-label="sx: 940.16; sy: 104; sparkBase: 108; metricId: sncAge; Metric: Median SNC age; Value: 21.2 days; Target: Target 14 days; Progress: 66% of target; Change: ▲ +2.3 days worse over the period; Band: WATCH" role="graphics-symbol" aria-roledescription="area mark" d="M940.16,104L987.195,90.609L1034.229,84.87L1081.264,75.304L1128.299,75.304L1175.333,60L1175.333,108L1128.299,108L1081.264,108L1034.229,108L987.195,108L940.16,108Z" fill="#0B8A6B" opacity="0.15"/></g></g><path class="foreground" aria-hidden="true" d="" display="none"/></g><g transform="translate(0,0)"><path class="background" aria-hidden="true" d="M0,0h1808v143h-1808Z"/><g><g class="mark-area role-mark layer_6_layer_0_marks" role="graphics-object" aria-roledescription="area mark container"><path aria-label="sx: 1542.82666667; sy: 104; sparkBase: 108; metricId: repeatSncs; Metric: Repeat SNCs; Value: 14.3%; Target: Target 10%; Progress: 70% of target; Change: ▲ +4.9% worse over the period; Band: WATCH" role="graphics-symbol" aria-roledescription="area mark" d="M1542.827,104L1589.861,91.429L1636.896,86.939L1683.931,77.959L1730.965,70.776L1778,60L1778,108L1730.965,108L1683.931,108L1636.896,108L1589.861,108L1542.827,108Z" fill="#0B8A6B" opacity="0.15"/></g></g><path class="foreground" aria-hidden="true" d="" display="none"/></g></g><g class="mark-group role-scope layer_6_layer_1_pathgroup" role="graphics-object" aria-roledescription="group mark container"><g transform="translate(0,0)"><path class="background" aria-hidden="true" d="M0,0h1808v143h-1808Z"/><g><g class="mark-line role-mark layer_6_layer_1_marks" role="graphics-object" aria-roledescription="line mark container"><path aria-label="sx: 337.493333333; sy: 93.8461538462; qi: 0; metricId: openSncs; Metric: Open SNCs; Value: 106; Target: Target 72; Progress: 68% of target; Change: ▲ +10 worse over the period; Band: WATCH" role="graphics-symbol" aria-roledescription="line mark" d="M337.493,93.846L384.528,104L431.563,87.077L478.597,80.308L525.632,70.154L572.667,60" stroke="#0F4D43" stroke-width="1.5" stroke-linecap="round" stroke-linejoin="round" opacity="1"/></g></g><path class="foreground" aria-hidden="true" d="" display="none"/></g><g transform="translate(0,0)"><path class="background" aria-hidden="true" d="M0,0h1808v143h-1808Z"/><g><g class="mark-line role-mark layer_6_layer_1_marks" role="graphics-object" aria-roledescription="line mark container"><path aria-label="sx: 940.16; sy: 104; qi: 0; metricId: sncAge; Metric: Median SNC age; Value: 21.2 days; Target: Target 14 days; Progress: 66% of target; Change: ▲ +2.3 days worse over the period; Band: WATCH" role="graphics-symbol" aria-roledescription="line mark" d="M940.16,104L987.195,90.609L1034.229,84.87L1081.264,75.304L1128.299,75.304L1175.333,60" stroke="#0F4D43" stroke-width="1.5" stroke-linecap="round" stroke-linejoin="round" opacity="1"/></g></g><path class="foreground" aria-hidden="true" d="" display="none"/></g><g transform="translate(0,0)"><path class="background" aria-hidden="true" d="M0,0h1808v143h-1808Z"/><g><g class="mark-line role-mark layer_6_layer_1_marks" role="graphics-object" aria-roledescription="line mark container"><path aria-label="sx: 1542.82666667; sy: 104; qi: 0; metricId: repeatSncs; Metric: Repeat SNCs; Value: 14.3%; Target: Target 10%; Progress: 70% of target; Change: ▲ +4.9% worse over the period; Band: WATCH" role="graphics-symbol" aria-roledescription="line mark" d="M1542.827,104L1589.861,91.429L1636.896,86.939L1683.931,77.959L1730.965,70.776L1778,60" stroke="#0F4D43" stroke-width="1.5" stroke-linecap="round" stroke-linejoin="round" opacity="1"/></g></g><path class="foreground" aria-hidden="true" d="" display="none"/></g></g><g class="mark-symbol role-mark layer_6_layer_2_marks" role="graphics-object" aria-roledescription="symbol mark container"><path aria-label="sx: 572.666666667; sy: 60; bandKey: #B9852C; Metric: Open SNCs; Value: 106; Target: Target 72; Progress: 68% of target; Change: ▲ +10 worse over the period; Band: WATCH" role="graphics-symbol" aria-roledescription="circle" transform="translate(572.6666666666666,60)" d="M3.317,0A3.317,3.317,0,1,1,-3.317,0A3.317,3.317,0,1,1,3.317,0" fill="#B9852C" stroke="#FFFFFF" stroke-width="1.5" opacity="1"/><path aria-label="sx: 1175.33333333; sy: 60; bandKey: #B9852C; Metric: Median SNC age; Value: 21.2 days; Target: Target 14 days; Progress: 66% of target; Change: ▲ +2.3 days worse over the period; Band: WATCH" role="graphics-symbol" aria-roledescription="circle" transform="translate(1175.3333333333333,60)" d="M3.317,0A3.317,3.317,0,1,1,-3.317,0A3.317,3.317,0,1,1,3.317,0" fill="#B9852C" stroke="#FFFFFF" stroke-width="1.5" opacity="1"/><path aria-label="sx: 1778; sy: 60; bandKey: #B9852C; Metric: Repeat SNCs; Value: 14.3%; Target: Target 10%; Progress: 70% of target; Change: ▲ +4.9% worse over the period; Band: WATCH" role="graphics-symbol" aria-roledescription="circle" transform="translate(1778,60)" d="M3.317,0A3.317,3.317,0,1,1,-3.317,0A3.317,3.317,0,1,1,3.317,0" fill="#B9852C" stroke="#FFFFFF" stroke-width="1.5" opacity="1"/></g><g class="mark-text role-mark layer_7_marks" role="graphics-object" aria-roledescription="text mark container"><text aria-label="c0: 0; deltaColour: #B9852C; deltaLine: ▲ +10 worse over the period; Metric: Open SNCs; Value: 106; Target: Target 72; Progress: 68% of target; Change: ▲ +10 worse over the period; Band: WATCH" role="graphics-symbol" aria-roledescription="text mark" text-anchor="start" transform="translate(30,130)" font-family="JetBrains Mono, Consolas, monospace" font-size="12.5px" font-weight="600" fill="#B9852C" opacity="1">▲ +10 worse over the period</text><text aria-label="c0: 1; deltaColour: #B9852C; deltaLine: ▲ +2.3 days worse over the period; Metric: Median SNC age; Value: 21.2 days; Target: Target 14 days; Progress: 66% of target; Change: ▲ +2.3 days worse over the period; Band: WATCH" role="graphics-symbol" aria-roledescription="text mark" text-anchor="start" transform="translate(632.6666666666666,130)" font-family="JetBrains Mono, Consolas, monospace" font-size="12.5px" font-weight="600" fill="#B9852C" opacity="1">▲ +2.3 days worse over the period</text><text aria-label="c0: 2; deltaColour: #B9852C; deltaLine: ▲ +4.9% worse over the period; Metric: Repeat SNCs; Value: 14.3%; Target: Target 10%; Progress: 70% of target; Change: ▲ +4.9% worse over the period; Band: WATCH" role="graphics-symbol" aria-roledescription="text mark" text-anchor="start" transform="translate(1235.3333333333333,130)" font-family="JetBrains Mono, Consolas, monospace" font-size="12.5px" font-weight="600" fill="#B9852C" opacity="1">▲ +4.9% worse over the period</text></g><g class="mark-text role-mark layer_8_marks" role="graphics-object" aria-roledescription="text mark container"><text aria-label="targetX: 572.666666667; targetText: Target 72; Metric: Open SNCs; Value: 106; Target: Target 72; Progress: 68% of target; Change: ▲ +10 worse over the period; Band: WATCH" role="graphics-symbol" aria-roledescription="text mark" text-anchor="end" transform="translate(572.6666666666666,130)" font-family="Segoe UI, wf_segoe-ui_normal, Arial, sans-serif" font-size="13px" fill="#5F6E69" opacity="1">Target 72</text><text aria-label="targetX: 1175.33333333; targetText: Target 14 days; Metric: Median SNC age; Value: 21.2 days; Target: Target 14 days; Progress: 66% of target; Change: ▲ +2.3 days worse over the period; Band: WATCH" role="graphics-symbol" aria-roledescription="text mark" text-anchor="end" transform="translate(1175.3333333333333,130)" font-family="Segoe UI, wf_segoe-ui_normal, Arial, sans-serif" font-size="13px" fill="#5F6E69" opacity="1">Target 14 days</text><text aria-label="targetX: 1778; targetText: Target 10%; Metric: Repeat SNCs; Value: 14.3%; Target: Target 10%; Progress: 70% of target; Change: ▲ +4.9% worse over the period; Band: WATCH" role="graphics-symbol" aria-roledescription="text mark" text-anchor="end" transform="translate(1778,130)" font-family="Segoe UI, wf_segoe-ui_normal, Arial, sans-serif" font-size="13px" fill="#5F6E69" opacity="1">Target 10%</text></g><g class="mark-text role-mark layer_9_marks" role="graphics-object" aria-roledescription="text mark container" pointer-events="none"/><g class="mark-group role-title"><g transform="translate(0,-19.5)"><path class="background" aria-hidden="true" d="M0,0h0v0h0Z" pointer-events="none"/><g><g class="mark-text role-title-text" role="graphics-symbol" aria-roledescription="title" aria-label="Title text 'METRICS'" pointer-events="none"><text text-anchor="start" transform="translate(0,10)" font-family="JetBrains Mono, Consolas, monospace" font-size="12.5px" font-weight="600" fill="#5F6E69" opacity="1">METRICS</text></g></g><path class="foreground" aria-hidden="true" d="" pointer-events="none" display="none"/></g></g></g><path class="foreground" aria-hidden="true" d="" display="none"/></g></g></g></svg>