<svg xmlns="http://www.w3.org/2000/svg" xmlns:xlink="http://www.w3.org/1999/xlink" version="1.1" class="marks" width="1824" height="180" viewBox="0 0 1824 180"><g fill="none" stroke-miterlimit="10" transform="translate(12,9)"><g class="mark-group role-frame root" role="graphics-object" aria-roledescription="group mark container"><g transform="translate(0,0)"><path class="background" aria-hidden="true" d="M0,0h1802v162h-1802Z"/><g><g class="mark-text role-mark layer_0_marks" role="graphics-object" aria-roledescription="text mark container"><text aria-label="top: 0" role="graphics-symbol" aria-roledescription="text mark" text-anchor="start" transform="translate(0,10)" font-family="JetBrains Mono, Consolas, monospace" font-size="12.5px" font-weight="600" fill="#5F6E69">COMPOSITE HEALTH</text></g><g class="mark-text role-mark layer_1_marks" role="graphics-object" aria-roledescription="text mark container"><text aria-label="valueY: 108; compositeScore: 74; Scope: Estate; Composite (mean of team composites): 74; Core domains: 13" role="graphics-symbol" aria-roledescription="text mark" text-anchor="start" transform="translate(-4,108)" font-family="Fraunces, Cambria, Georgia, serif" font-size="96px" font-weight="600" fill="#0F4D43">74</text></g><g class="mark-rect role-mark layer_2_layer_0_marks" role="graphics-object" aria-roledescription="rect mark container"><path aria-label="pillX: 0; pillY: 132; pillW: 71; pillY2: 156; pillFill: #F5EAD6; compositeKey: #B9852C" role="graphics-symbol" aria-roledescription="rect mark" d="M12,132L59,132C65.622980293928,132,71,137.377019706072,71,144L71,144C71,150.622980293928,65.622980293928,156,59,156L12,156C5.377019706072,156,0,150.622980293928,0,144L0,144C0,137.377019706072,5.377019706072,132,12,132Z" fill="#F5EAD6" stroke="#B9852C" stroke-opacity="0.35" stroke-width="1"/></g><g class="mark-symbol role-mark layer_2_layer_1_marks" role="graphics-object" aria-roledescription="symbol mark container"><path aria-label="pillMid: 144; compositeKey: #B9852C" role="graphics-symbol" aria-roledescription="circle" transform="translate(15,144)" d="M4,0A4,4,0,1,1,-4,0A4,4,0,1,1,4,0" fill="#B9852C" stroke-width="2" opacity="1"/></g><g class="mark-text role-mark layer_2_layer_2_marks" role="graphics-object" aria-roledescription="text mark container"><text aria-label="pillMid: 144; pillLabel: WATCH" role="graphics-symbol" aria-roledescription="text mark" text-anchor="start" transform="translate(25,148)" font-family="JetBrains Mono, Consolas, monospace" font-size="12.5px" font-weight="600" fill="#0F4D43">WATCH</text></g><g class="mark-area role-mark layer_3_layer_0_marks" role="graphics-object" aria-roledescription="area mark container"><path aria-label="sx: 140; sy: 46.8; sparkBase: 108" role="graphics-symbol" aria-roledescription="area mark" d="M140,46.8L198.4,46.8L256.8,61.2L315.2,68.4L373.6,82.8L432,97.2L432,108L373.6,108L315.2,108L256.8,108L198.4,108L140,108Z" fill="#0B8A6B" opacity="0.18"/></g><g class="mark-line role-mark layer_3_layer_1_marks" role="graphics-object" aria-roledescription="line mark container"><path aria-label="sx: 140; sy: 46.8; qi: 0" role="graphics-symbol" aria-roledescription="line mark" d="M140,46.8L198.4,46.8L256.8,61.2L315.2,68.4L373.6,82.8L432,97.2" stroke="#0F4D43" stroke-width="2" stroke-linecap="round" stroke-linejoin="round"/></g><g class="mark-symbol role-mark layer_3_layer_2_marks" role="graphics-object" aria-roledescription="symbol mark container"><path aria-label="sx: 140; sy: 46.8; Quarter: q1; Composite: 81" role="graphics-symbol" aria-roledescription="circle" transform="translate(140,46.8)" d="M5.477,0A5.477,5.477,0,1,1,-5.477,0A5.477,5.477,0,1,1,5.477,0" fill="#4c78a8" stroke-width="2" opacity="0"/><path aria-label="sx: 198.4; sy: 46.8; Quarter: q2; Composite: 81" role="graphics-symbol" aria-roledescription="circle" transform="translate(198.4,46.8)" d="M5.477,0A5.477,5.477,0,1,1,-5.477,0A5.477,5.477,0,1,1,5.477,0" fill="#4c78a8" stroke-width="2" opacity="0"/><path aria-label="sx: 256.8; sy: 61.2; Quarter: q3; Composite: 79" role="graphics-symbol" aria-roledescription="circle" transform="translate(256.8,61.2)" d="M5.477,0A5.477,5.477,0,1,1,-5.477,0A5.477,5.477,0,1,1,5.477,0" fill="#4c78a8" stroke-width="2" opacity="0"/><path aria-label="sx: 315.2; sy: 68.4; Quarter: q4; Composite: 78" role="graphics-symbol" aria-roledescription="circle" transform="translate(315.2,68.4)" d="M5.477,0A5.477,5.477,0,1,1,-5.477,0A5.477,5.477,0,1,1,5.477,0" fill="#4c78a8" stroke-width="2" opacity="0"/><path aria-label="sx: 373.6; sy: 82.8; Quarter: q5; Composite: 76" role="graphics-symbol" aria-roledescription="circle" transform="translate(373.6,82.8)" d="M5.477,0A5.477,5.477,0,1,1,-5.477,0A5.477,5.477,0,1,1,5.477,0" fill="#4c78a8" stroke-width="2" opacity="0"/><path aria-label="sx: 432; sy: 97.2; Quarter: q6; Composite: 74" role="graphics-symbol" aria-roledescription="circle" transform="translate(432,97.2)" d="M5.477,0A5.477,5.477,0,1,1,-5.477,0A5.477,5.477,0,1,1,5.477,0" fill="#4c78a8" stroke-width="2" opacity="0"/></g><g class="mark-symbol role-mark layer_3_layer_3_marks" role="graphics-object" aria-roledescription="symbol mark container"><path aria-label="sx: 432; sy: 97.2; compositeKey: #B9852C" role="graphics-symbol" aria-roledescription="circle" transform="translate(432,97.2)" d="M4.183,0A4.183,4.183,0,1,1,-4.183,0A4.183,4.183,0,1,1,4.183,0" fill="#B9852C" stroke="#FFFFFF" stroke-width="2" opacity="1"/></g><g class="mark-text role-mark layer_3_layer_4_marks" role="graphics-object" aria-roledescription="text mark container"><text aria-label="sparkX1: 432; pillMid: 144; sparkCaption: 81 to 74 over six quarters" role="graphics-symbol" aria-roledescription="text mark" text-anchor="end" transform="translate(432,148)" font-family="Segoe UI, wf_segoe-ui_normal, Arial, sans-serif" font-size="13px" fill="#5F6E69">81 to 74 over six quarters</text></g><g class="mark-rule role-mark layer_4_marks" role="graphics-object" aria-roledescription="rule mark container"><line aria-label="dividerX: 464; dividerY: 0; dividerY2: 162" role="graphics-symbol" aria-roledescription="rule mark" transform="translate(464,0)" x2="0" y2="162" stroke="#D6D9D2" stroke-width="1"/></g><g class="mark-text role-mark layer_5_marks" role="graphics-object" aria-roledescription="text mark container"><text aria-label="rightStart: 488; top: 0; headline: 2 of 13 domains healthy across the estate.,3 teams need action, led by Incidents." role="graphics-symbol" aria-roledescription="text mark" text-anchor="start" transform="translate(488,21)" font-family="Fraunces, Cambria, Georgia, serif" font-size="26px" font-weight="600" fill="#0F4D43"><tspan>2 of 13 domains healthy across the estate.</tspan><tspan x="0" dy="32">3 teams need action, led by Incidents.</tspan></text></g><g class="mark-text role-mark layer_6_layer_0_marks" role="graphics-object" aria-roledescription="text mark container"><text aria-label="rightStart: 488; mixY: 88" role="graphics-symbol" aria-roledescription="text mark" text-anchor="start" transform="translate(488,92)" font-family="JetBrains Mono, Consolas, monospace" font-size="12.5px" font-weight="600" fill="#5F6E69">DOMAIN MIX</text></g><g class="mark-text role-mark layer_6_layer_1_marks" role="graphics-object" aria-roledescription="text mark container"><text aria-label="mixEnd: 1802; mixY: 88; mixNote: 13 core domains" role="graphics-symbol" aria-roledescription="text mark" text-anchor="end" transform="translate(1802,92)" font-family="Segoe UI, wf_segoe-ui_normal, Arial, sans-serif" font-size="13px" fill="#5F6E69">13 core domains</text></g><g class="mark-rect role-mark layer_7_layer_0_marks" role="graphics-object" aria-roledescription="rect mark container"><path aria-label="segX: 488; segY: 108; segX2: 804.846153846; segY2: 156; segFill: #DDF0E8; segKey: #0B8A6B; Domains: 2 healthy; Core domains: 13" role="graphics-symbol" aria-roledescription="rect mark" d="M498,108L794.8461538461538,108C800.3653040910938,108,804.8461538461538,112.48084975506,804.8461538461538,118L804.8461538461538,146C804.8461538461538,151.51915024494,800.3653040910938,156,794.8461538461538,156L498,156C492.48084975506,156,488,151.51915024494,488,146L488,118C488,112.48084975506,492.48084975506,108,498,108Z" fill="#DDF0E8" stroke="#0B8A6B" stroke-width="1.5"/><path aria-label="segX: 810.846153846; segY: 108; segX2: 1802; segY2: 156; segFill: #F5EAD6; segKey: #B9852C; Domains: 11 to watch; Core domains: 13" role="graphics-symbol" aria-roledescription="rect mark" d="M820.8461538461538,108L1792,108C1797.51915024494,108,1802,112.48084975506,1802,118L1802,146C1802,151.51915024494,1797.51915024494,156,1792,156L820.8461538461538,156C815.3270036012138,156,810.8461538461538,151.51915024494,810.8461538461538,146L810.8461538461538,118C810.8461538461538,112.48084975506,815.3270036012138,108,820.8461538461538,108Z" fill="#F5EAD6" stroke="#B9852C" stroke-width="1.5"/></g><g class="mark-symbol role-mark layer_7_layer_1_marks" role="graphics-object" aria-roledescription="symbol mark container"><path aria-label="segDotX: 506; segMid: 132; segKey: #0B8A6B" role="graphics-symbol" aria-roledescription="circle" transform="translate(506,132)" d="M4,0A4,4,0,1,1,-4,0A4,4,0,1,1,4,0" fill="#0B8A6B" stroke-width="2" opacity="1"/><path aria-label="segDotX: 828.846153846; segMid: 132; segKey: #B9852C" role="graphics-symbol" aria-roledescription="circle" transform="translate(828.8461538461538,132)" d="M4,0A4,4,0,1,1,-4,0A4,4,0,1,1,4,0" fill="#B9852C" stroke-width="2" opacity="1"/></g><g class="mark-text role-mark layer_7_layer_2_marks" role="graphics-object" aria-roledescription="text mark container"><text aria-label="segTextX: 518; segMid: 132; segLabel: 2 healthy" role="graphics-symbol" aria-roledescription="text mark" text-anchor="start" transform="translate(518,137)" font-family="Segoe UI, wf_segoe-ui_normal, Arial, sans-serif" font-size="15px" font-weight="600" fill="#0F4D43">2 healthy</text><text aria-label="segTextX: 840.846153846; segMid: 132; segLabel: 11 to watch" role="graphics-symbol" aria-roledescription="text mark" text-anchor="start" transform="translate(840.8461538461538,137)" font-family="Segoe UI, wf_segoe-ui_normal, Arial, sans-serif" font-size="15px" font-weight="600" fill="#0F4D43">11 to watch</text></g></g><path class="foreground" aria-hidden="true" d="" display="none"/></g></g></g></svg>